<svg xmlns="http://www.w3.org/2000/svg" width="1027" height="1021" viewBox="0 0 1027 1021">
<g>
<path d="M 827.31 970.74 C825.98,971.73 769.82,971.94 556.07,971.75 C407.80,971.62 281.33,971.20 275.00,970.83 C263.21,970.13 259.92,969.57 249.50,966.53 C238.53,963.32 224.37,955.00 213.22,945.22 C207.93,940.57 201.69,932.42 195.63,922.26 C193.60,918.84 188.60,903.26 186.44,893.60 L 184.00 882.70 L 184.00 679.98 C184.00,673.75 184.00,667.70 184.00,661.83 C184.00,482.15 184.00,469.75 180.38,458.53 C180.00,457.33 179.57,456.14 179.10,454.77 C174.85,442.46 161.95,426.81 149.30,418.63 C136.19,410.14 126.45,407.02 113.07,406.98 C102.09,406.96 101.26,404.25 110.78,399.58 C113.92,398.04 118.81,395.24 121.63,393.37 C124.46,391.49 130.54,388.11 135.14,385.85 C139.74,383.59 144.18,381.18 145.00,380.48 C145.82,379.78 150.81,377.00 156.08,374.30 C161.34,371.60 166.97,368.47 168.58,367.35 C171.48,365.34 203.25,347.68 220.50,338.51 C225.45,335.87 230.62,332.96 232.00,332.02 C233.38,331.09 237.46,328.97 241.09,327.29 C244.71,325.62 250.05,322.63 252.95,320.63 C255.85,318.63 258.67,317.00 259.22,317.00 C259.77,317.00 263.88,314.79 268.36,312.10 C272.84,309.40 280.30,305.34 284.94,303.08 C289.59,300.81 294.09,298.34 294.94,297.58 C295.80,296.82 299.20,294.88 302.50,293.27 C305.80,291.66 312.01,288.43 316.29,286.08 C320.58,283.74 324.74,282.07 325.53,282.37 C326.79,282.86 327.01,319.66 327.24,561.71 L 327.50 840.50 L 330.14 850.00 C333.24,861.17 337.13,869.94 341.46,875.50 C343.17,877.70 345.29,880.64 346.16,882.03 C347.91,884.80 349.91,886.74 357.65,893.20 C363.06,897.71 377.85,904.21 387.36,906.26 C390.93,907.03 444.42,907.56 562.50,907.99 C681.11,908.43 733.71,908.95 736.50,909.72 C750.87,913.66 761.89,919.40 778.50,931.61 C829.30,968.91 829.53,969.10 827.31,970.74 ZM 268.99 968.44 C281.06,970.03 824.00,970.63 824.00,969.06 C824.00,967.93 822.01,966.34 804.50,953.49 C783.51,938.09 780.42,935.80 772.26,929.67 C763.70,923.23 744.97,913.64 737.37,911.81 C733.79,910.95 686.92,910.48 560.50,910.03 L 388.50 909.43 L 380.74 906.79 C366.01,901.78 358.34,897.22 348.86,887.85 C341.77,880.83 339.28,877.52 335.70,870.35 C330.30,859.53 327.35,850.73 326.04,841.50 C325.39,836.98 325.03,736.80 325.02,559.25 C325.01,407.86 324.71,284.00 324.35,284.00 C323.99,284.00 319.83,286.12 315.10,288.70 C310.37,291.29 304.70,294.36 302.50,295.53 C292.53,300.82 264.42,316.19 258.00,319.86 C255.52,321.27 252.15,323.15 250.50,324.03 C248.85,324.91 243.23,328.05 238.00,331.02 C232.77,333.99 225.75,337.79 222.39,339.46 C219.04,341.13 215.65,343.03 214.88,343.68 C214.10,344.33 208.98,347.18 203.48,350.01 C197.99,352.85 188.77,357.89 183.00,361.21 C177.23,364.54 166.43,370.63 159.00,374.75 C137.38,386.74 124.04,394.10 116.07,398.45 C106.46,403.69 106.02,405.00 113.87,405.00 C131.26,405.00 148.60,412.79 163.02,427.08 C170.53,434.53 171.95,436.37 176.46,444.50 C182.95,456.20 185.18,464.86 186.09,482.00 C186.54,490.52 186.92,584.48 186.93,690.78 L 186.96 884.07 L 189.55 896.78 C192.50,911.26 194.84,917.01 202.40,928.43 C211.34,941.95 225.31,953.92 239.50,960.24 C249.86,964.84 257.27,966.91 268.99,968.44 ZM 284.50 239.55 C275.99,241.09 259.13,241.31 252.50,239.97 C245.55,238.56 229.73,233.00 223.50,229.77 C210.10,222.82 195.17,209.42 187.54,197.50 C177.20,181.33 172.12,166.51 171.32,150.11 C170.45,132.53 172.98,119.91 180.77,103.00 C192.07,78.46 214.67,59.02 240.50,51.59 C263.84,44.88 293.69,47.77 313.93,58.69 C348.38,77.28 367.84,112.52 364.91,151.00 C363.56,168.74 358.99,182.14 349.31,196.73 C342.17,207.48 326.10,222.79 315.54,228.89 C309.43,232.42 293.37,237.94 284.50,239.55 ZM 257.00 238.33 C262.25,239.16 273.87,238.96 279.57,237.93 C304.68,233.43 316.67,227.68 332.97,212.34 C341.22,204.59 342.68,202.76 350.70,190.12 C366.49,165.22 366.84,126.85 351.51,98.45 C346.06,88.34 336.16,76.84 326.50,69.37 C320.74,64.92 307.26,57.34 301.95,55.57 C287.97,50.91 268.37,48.98 254.95,50.95 C231.27,54.41 221.10,59.52 200.79,78.17 C189.45,88.59 179.21,107.34 175.88,123.77 C167.26,166.37 185.59,205.88 224.17,227.83 C231.07,231.76 246.38,236.65 257.00,238.33 ZM 99.24 700.95 C95.04,702.12 94.16,702.12 88.50,700.97 C78.93,699.02 75.27,696.34 56.86,677.75 C47.04,667.84 39.00,659.51 39.00,659.24 C39.00,658.98 37.47,656.68 35.61,654.13 C33.74,651.59 31.49,647.76 30.61,645.63 C28.39,640.29 28.56,630.56 30.97,625.25 C33.34,620.04 34.49,619.57 32.36,624.69 C31.26,627.32 30.91,630.84 31.16,636.98 C31.47,644.74 31.84,646.15 35.00,651.35 C36.92,654.52 46.51,665.40 56.31,675.52 C76.61,696.48 80.06,698.80 92.37,699.69 C98.89,700.16 99.98,699.95 105.12,697.23 C111.25,693.97 127.11,682.72 133.55,677.06 C135.77,675.10 139.71,672.05 142.30,670.27 C146.75,667.22 147.01,666.78 147.12,662.27 C147.18,659.65 147.58,656.15 148.00,654.50 C148.58,652.22 148.79,653.20 148.88,658.56 C149.01,666.39 148.72,666.97 142.00,672.07 C139.52,673.95 136.15,676.68 134.50,678.14 C123.87,687.51 106.00,699.07 99.24,700.95 Z" fill="rgb(128,137,138)"/>
<path d="M 942.65 670.42 C939.97,671.29 937.03,671.92 936.14,671.83 C935.24,671.74 932.70,671.49 930.50,671.27 C925.75,670.80 918.49,667.39 911.26,662.24 C904.28,657.26 869.90,633.88 859.65,627.14 C855.17,624.20 848.93,620.03 845.80,617.89 C842.66,615.75 839.78,614.00 839.40,614.00 C839.02,614.00 836.81,612.45 834.50,610.55 C829.64,606.57 810.86,593.71 804.37,589.93 C801.95,588.51 798.51,585.98 796.73,584.30 C794.95,582.62 792.38,580.68 791.00,579.99 C789.62,579.31 784.78,576.22 780.23,573.12 C775.68,570.03 770.47,566.60 768.65,565.50 C766.84,564.40 763.59,562.13 761.43,560.45 C757.64,557.51 753.49,554.59 750.12,552.49 C742.30,547.63 726.74,536.96 723.57,534.30 C721.41,532.49 719.28,531.00 718.83,531.00 C717.93,531.00 702.24,520.31 700.18,518.30 C699.45,517.58 698.49,517.00 698.05,517.00 C697.60,517.00 694.73,515.09 691.66,512.75 C688.59,510.41 683.08,506.70 679.40,504.50 C675.73,502.30 671.33,499.33 669.61,497.90 C667.90,496.47 664.27,494.06 661.55,492.56 C658.83,491.05 655.01,488.51 653.07,486.91 C651.13,485.31 649.18,484.00 648.74,484.00 C648.30,484.00 645.77,482.31 643.11,480.25 C638.74,476.86 633.50,473.42 625.80,468.89 C624.29,468.01 621.37,465.98 619.30,464.39 C617.23,462.80 611.93,459.14 607.52,456.26 C603.11,453.39 598.60,450.32 597.50,449.46 C596.40,448.60 593.25,446.53 590.50,444.87 C587.75,443.22 582.80,439.88 579.50,437.45 C559.52,422.77 529.12,403.06 526.40,403.03 C525.25,403.01 523.52,403.87 522.56,404.93 C521.60,405.99 519.29,407.58 517.43,408.47 C515.57,409.35 509.65,413.32 504.27,417.29 C493.28,425.42 494.50,424.56 478.00,435.81 C471.30,440.38 462.37,446.68 458.16,449.80 C445.62,459.09 441.78,461.84 436.00,465.69 C432.98,467.70 426.18,472.53 420.90,476.42 C410.96,483.74 385.86,501.64 376.17,508.30 C373.14,510.39 369.11,513.45 367.23,515.10 C365.35,516.75 363.36,517.95 362.81,517.77 C362.14,517.55 361.84,486.35 361.92,425.47 L 362.03 333.50 L 365.27 330.77 C367.04,329.27 371.78,325.67 375.79,322.77 C379.79,319.87 386.09,315.01 389.79,311.98 C393.48,308.94 398.52,304.92 401.00,303.03 C403.48,301.15 406.62,298.58 408.00,297.31 C409.38,296.05 411.92,293.99 413.66,292.75 C420.73,287.70 432.66,278.30 435.02,275.91 C436.41,274.51 441.22,270.79 445.70,267.65 C450.19,264.51 454.00,261.60 454.18,261.20 C454.35,260.79 457.57,258.22 461.33,255.48 C465.08,252.74 469.88,249.15 471.99,247.50 C474.11,245.85 478.82,242.25 482.48,239.50 C493.95,230.86 498.38,227.34 502.37,223.68 C512.18,214.69 523.09,210.30 532.50,211.54 C542.93,212.91 547.10,215.60 576.52,239.94 C598.87,258.43 602.33,261.28 609.50,267.08 C612.25,269.31 616.53,272.85 619.00,274.95 C621.47,277.05 625.38,280.28 627.68,282.13 C629.98,283.99 634.87,287.98 638.54,291.00 C642.21,294.02 651.13,301.34 658.36,307.25 C665.59,313.16 673.94,320.14 676.91,322.75 C679.89,325.36 683.26,328.14 684.41,328.93 C687.16,330.81 701.67,342.73 705.50,346.24 C707.15,347.75 708.77,348.99 709.10,349.00 C709.44,349.00 710.84,350.01 712.22,351.25 C713.61,352.49 717.10,355.30 719.98,357.50 C722.86,359.70 725.74,361.98 726.36,362.56 C727.41,363.54 735.75,370.56 750.27,382.68 C753.44,385.33 758.16,389.32 760.77,391.55 C763.37,393.78 767.52,397.16 769.98,399.05 C775.35,403.19 814.48,436.03 821.35,442.17 C824.02,444.55 827.00,446.95 827.98,447.50 C828.95,448.05 831.95,450.40 834.63,452.71 C837.31,455.03 846.92,463.02 856.00,470.48 C865.08,477.94 874.53,485.77 877.00,487.88 C879.47,489.99 884.23,493.92 887.57,496.61 C904.95,510.61 941.53,540.70 950.17,548.10 C952.74,550.30 956.42,553.31 958.36,554.80 C969.12,563.06 990.01,580.33 993.19,583.60 C1001.89,592.56 1004.76,603.86 1001.04,614.49 C997.93,623.36 995.47,626.33 976.79,643.67 C956.29,662.71 949.10,668.34 942.65,670.42 ZM 827.00 922.49 C826.48,923.87 825.70,924.96 825.27,924.92 C823.60,924.75 815.12,919.03 787.50,899.46 C780.90,894.78 773.53,889.73 771.12,888.23 C768.71,886.73 764.89,883.87 762.62,881.88 C760.35,879.90 756.92,877.47 755.00,876.49 C753.08,875.52 751.28,874.40 751.00,874.01 C750.72,873.62 748.70,872.13 746.50,870.70 C744.30,869.26 741.01,866.82 739.19,865.28 L 735.89 862.46 L 735.97 725.04 C736.02,649.45 736.27,587.40 736.53,587.14 C737.01,586.66 762.64,603.59 776.58,613.59 C780.73,616.57 784.49,619.00 784.94,619.00 C785.39,619.00 786.35,619.72 787.08,620.60 C787.81,621.48 791.58,624.25 795.45,626.77 C799.33,629.28 802.72,631.61 803.00,631.94 C803.28,632.27 804.85,633.39 806.50,634.41 C808.15,635.44 813.67,639.42 818.76,643.25 L 828.02 650.22 L 827.99 785.10 C827.97,868.21 827.59,920.94 827.00,922.49 ZM 148.19 653.82 C148.13,654.00 148.07,654.23 148.00,654.50 C147.58,656.15 147.18,659.65 147.12,662.27 C147.01,666.78 146.75,667.22 142.30,670.27 C139.71,672.05 135.77,675.10 133.55,677.06 C127.11,682.72 111.25,693.97 105.12,697.23 C99.98,699.95 98.89,700.16 92.37,699.69 C80.06,698.80 76.61,696.48 56.31,675.52 C46.51,665.40 36.92,654.52 35.00,651.35 C31.84,646.15 31.47,644.74 31.16,636.98 C30.91,630.84 31.26,627.32 32.36,624.69 C33.40,622.20 33.66,621.03 33.38,621.09 C33.69,620.72 34.01,620.40 34.34,620.13 C35.25,619.37 36.00,618.20 36.00,617.51 C36.00,615.96 43.49,608.96 52.00,602.57 C55.58,599.88 59.90,596.38 61.61,594.78 C63.33,593.18 66.76,590.44 69.25,588.69 C71.74,586.93 78.12,582.12 83.44,578.00 C88.76,573.88 94.47,569.60 96.14,568.50 C97.80,567.40 101.49,564.59 104.33,562.26 C107.17,559.92 111.29,556.81 113.49,555.35 C115.68,553.88 120.86,549.92 124.99,546.56 C136.48,537.21 145.96,530.77 147.42,531.33 C148.50,531.75 148.69,544.15 148.46,599.17 C148.36,621.46 148.27,641.40 148.19,653.82 ZM 143.69 670.77 C146.08,668.91 147.39,667.67 148.11,666.14 C148.10,666.73 148.09,667.05 148.09,667.08 C148.04,667.40 146.09,669.04 143.75,670.73 ZM 31.71 647.89 C32.79,649.91 34.30,652.34 35.61,654.13 C33.97,651.90 32.69,649.86 31.71,647.89 ZM 29.38 631.20 C29.02,633.81 28.95,636.64 29.19,639.27 C29.07,638.11 29.02,636.91 29.02,635.63 C29.03,634.15 29.15,632.65 29.38,631.20 ZM 132.60 679.77 C133.26,679.22 133.89,678.67 134.50,678.14 C135.09,677.62 135.89,676.94 136.79,676.20 C136.69,676.29 136.59,676.37 136.50,676.46 C135.27,677.54 133.97,678.65 132.60,679.77 ZM 32.10 622.93 C31.82,623.46 31.50,624.10 31.16,624.85 C31.45,624.16 31.77,623.52 32.10,622.93 Z" fill="rgb(2,129,182)"/>
<path d="M 268.99 968.44 C257.27,966.91 249.86,964.84 239.50,960.24 C225.31,953.92 211.34,941.95 202.40,928.43 C194.84,917.01 192.50,911.26 189.55,896.78 L 186.96 884.07 L 186.93 690.78 C186.92,584.48 186.54,490.52 186.09,482.00 C185.18,464.86 182.95,456.20 176.46,444.50 C171.95,436.37 170.53,434.53 163.02,427.08 C148.60,412.79 131.26,405.00 113.87,405.00 C106.02,405.00 106.46,403.69 116.07,398.45 C124.04,394.10 137.38,386.74 159.00,374.75 C166.43,370.63 177.23,364.54 183.00,361.21 C188.77,357.89 197.99,352.85 203.48,350.01 C208.98,347.18 214.10,344.33 214.88,343.68 C215.65,343.03 219.04,341.13 222.39,339.46 C225.75,337.79 232.77,333.99 238.00,331.02 C243.23,328.05 248.85,324.91 250.50,324.03 C252.15,323.15 255.52,321.27 258.00,319.86 C264.42,316.19 292.53,300.82 302.50,295.53 C304.70,294.36 310.37,291.29 315.10,288.70 C319.83,286.12 323.99,284.00 324.35,284.00 C324.71,284.00 325.01,407.86 325.02,559.25 C325.03,736.80 325.39,836.98 326.04,841.50 C327.35,850.73 330.30,859.53 335.70,870.35 C339.28,877.52 341.77,880.83 348.86,887.85 C358.34,897.22 366.01,901.78 380.74,906.79 L 388.50 909.43 L 560.50 910.03 C686.92,910.48 733.79,910.95 737.37,911.81 C744.97,913.64 763.70,923.23 772.26,929.67 C780.42,935.80 783.51,938.09 804.50,953.49 C822.01,966.34 824.00,967.93 824.00,969.06 C824.00,970.63 281.06,970.03 268.99,968.44 ZM 257.00 238.33 C246.38,236.65 231.07,231.76 224.17,227.83 C185.59,205.88 167.26,166.37 175.88,123.77 C179.21,107.34 189.45,88.59 200.79,78.17 C221.10,59.52 231.27,54.41 254.95,50.95 C268.37,48.98 287.97,50.91 301.95,55.57 C307.26,57.34 320.74,64.92 326.50,69.37 C336.16,76.84 346.06,88.34 351.51,98.45 C366.84,126.85 366.49,165.22 350.70,190.12 C342.68,202.76 341.22,204.59 332.97,212.34 C316.67,227.68 304.68,233.43 279.57,237.93 C273.87,238.96 262.25,239.16 257.00,238.33 Z" fill="rgb(32,32,31)"/>
<path d="M 0.00 510.50 L 0.00 0.00 L 513.50 0.00 L 1027.00 0.00 L 1027.00 510.50 L 1027.00 1021.00 L 513.50 1021.00 L 0.00 1021.00 L 0.00 510.50 ZM 827.31 970.74 C829.53,969.10 829.30,968.91 778.50,931.61 C761.89,919.40 750.87,913.66 736.50,909.72 C733.71,908.95 681.11,908.43 562.50,907.99 C444.42,907.56 390.93,907.03 387.36,906.26 C377.85,904.21 363.06,897.71 357.65,893.20 C349.91,886.74 347.91,884.80 346.16,882.03 C345.29,880.64 343.17,877.70 341.46,875.50 C337.13,869.94 333.24,861.17 330.14,850.00 L 327.50 840.50 L 327.24 561.71 C327.01,319.66 326.79,282.86 325.53,282.37 C324.74,282.07 320.58,283.74 316.29,286.08 C312.01,288.43 305.80,291.66 302.50,293.27 C299.20,294.88 295.80,296.82 294.94,297.58 C294.09,298.34 289.59,300.81 284.94,303.08 C280.30,305.34 272.84,309.40 268.36,312.10 C263.88,314.79 259.77,317.00 259.22,317.00 C258.67,317.00 255.85,318.63 252.95,320.63 C250.05,322.63 244.71,325.62 241.09,327.29 C237.46,328.97 233.38,331.09 232.00,332.02 C230.62,332.96 225.45,335.87 220.50,338.51 C203.25,347.68 171.48,365.34 168.58,367.35 C166.97,368.47 161.34,371.60 156.08,374.30 C150.81,377.00 145.82,379.78 145.00,380.48 C144.18,381.18 139.74,383.59 135.14,385.85 C130.54,388.11 124.46,391.49 121.63,393.37 C118.81,395.24 113.92,398.04 110.78,399.58 C101.26,404.25 102.09,406.96 113.07,406.98 C126.45,407.02 136.19,410.14 149.30,418.63 C161.95,426.81 174.85,442.46 179.10,454.77 C184.15,469.43 184.00,462.59 184.00,679.98 L 184.00 882.70 L 186.44 893.60 C188.60,903.26 193.60,918.84 195.63,922.26 C201.69,932.42 207.93,940.57 213.22,945.22 C224.37,955.00 238.53,963.32 249.50,966.53 C259.92,969.57 263.21,970.13 275.00,970.83 C281.33,971.20 407.80,971.62 556.07,971.75 C769.82,971.94 825.98,971.73 827.31,970.74 ZM 827.00 922.49 C827.59,920.94 827.97,868.21 827.99,785.10 L 828.02 650.22 L 818.76 643.25 C813.67,639.42 808.15,635.44 806.50,634.41 C804.85,633.39 803.28,632.27 803.00,631.94 C802.72,631.61 799.33,629.28 795.45,626.77 C791.58,624.25 787.81,621.48 787.08,620.60 C786.35,619.72 785.39,619.00 784.94,619.00 C784.49,619.00 780.73,616.57 776.58,613.59 C762.64,603.59 737.01,586.66 736.53,587.14 C736.27,587.40 736.02,649.45 735.97,725.04 L 735.89 862.46 L 739.19 865.28 C741.01,866.82 744.30,869.26 746.50,870.70 C748.70,872.13 750.72,873.62 751.00,874.01 C751.28,874.40 753.08,875.52 755.00,876.49 C756.92,877.47 760.35,879.90 762.62,881.88 C764.89,883.87 768.71,886.73 771.12,888.23 C773.53,889.73 780.90,894.78 787.50,899.46 C815.12,919.03 823.60,924.75 825.27,924.92 C825.70,924.96 826.48,923.87 827.00,922.49 ZM 99.24 700.95 C106.23,699.01 124.87,686.75 136.50,676.46 C138.15,674.99 141.41,672.42 143.75,670.73 C146.09,669.04 148.04,667.40 148.09,667.08 C148.14,666.76 148.30,636.20 148.46,599.17 C148.69,544.15 148.50,531.75 147.42,531.33 C145.96,530.77 136.48,537.21 124.99,546.56 C120.86,549.92 115.68,553.88 113.49,555.35 C111.29,556.81 107.17,559.92 104.33,562.26 C101.49,564.59 97.80,567.40 96.14,568.50 C94.47,569.60 88.76,573.88 83.44,578.00 C78.12,582.12 71.74,586.93 69.25,588.69 C66.76,590.44 63.33,593.18 61.61,594.78 C59.90,596.38 55.58,599.88 52.00,602.57 C43.49,608.96 36.00,615.96 36.00,617.51 C36.00,618.20 35.25,619.37 34.34,620.13 C31.31,622.64 29.04,629.24 29.02,635.63 C29.00,642.61 30.72,647.45 35.61,654.13 C37.47,656.68 39.00,658.98 39.00,659.24 C39.00,659.51 47.04,667.84 56.86,677.75 C75.27,696.34 78.93,699.02 88.50,700.97 C94.16,702.12 95.04,702.12 99.24,700.95 ZM 942.65 670.42 C949.10,668.34 956.29,662.71 976.79,643.67 C995.47,626.33 997.93,623.36 1001.04,614.49 C1004.76,603.86 1001.89,592.56 993.19,583.60 C990.01,580.33 969.12,563.06 958.36,554.80 C956.42,553.31 952.74,550.30 950.17,548.10 C941.53,540.70 904.95,510.61 887.57,496.61 C884.23,493.92 879.47,489.99 877.00,487.88 C874.53,485.77 865.08,477.94 856.00,470.48 C846.92,463.02 837.31,455.03 834.63,452.71 C831.95,450.40 828.95,448.05 827.98,447.50 C827.00,446.95 824.02,444.55 821.35,442.17 C814.48,436.03 775.35,403.19 769.98,399.05 C767.52,397.16 763.37,393.78 760.77,391.55 C758.16,389.32 753.44,385.33 750.27,382.68 C735.75,370.56 727.41,363.54 726.36,362.56 C725.74,361.98 722.86,359.70 719.98,357.50 C717.10,355.30 713.61,352.49 712.22,351.25 C710.84,350.01 709.44,349.00 709.10,349.00 C708.77,348.99 707.15,347.75 705.50,346.24 C701.67,342.73 687.16,330.81 684.41,328.93 C683.26,328.14 679.89,325.36 676.91,322.75 C673.94,320.14 665.59,313.16 658.36,307.25 C651.13,301.34 642.21,294.02 638.54,291.00 C634.87,287.98 629.98,283.99 627.68,282.13 C625.38,280.28 621.47,277.05 619.00,274.95 C616.53,272.85 612.25,269.31 609.50,267.08 C602.33,261.28 598.87,258.43 576.52,239.94 C547.10,215.60 542.93,212.91 532.50,211.54 C523.09,210.30 512.18,214.69 502.37,223.68 C498.38,227.34 493.95,230.86 482.48,239.50 C478.82,242.25 474.11,245.85 471.99,247.50 C469.88,249.15 465.08,252.74 461.33,255.48 C457.57,258.22 454.35,260.79 454.18,261.20 C454.00,261.60 450.19,264.51 445.70,267.65 C441.22,270.79 436.41,274.51 435.02,275.91 C432.66,278.30 420.73,287.70 413.66,292.75 C411.92,293.99 409.38,296.05 408.00,297.31 C406.62,298.58 403.48,301.15 401.00,303.03 C398.52,304.92 393.48,308.94 389.79,311.98 C386.09,315.01 379.79,319.87 375.79,322.77 C371.78,325.67 367.04,329.27 365.27,330.77 L 362.03 333.50 L 361.92 425.47 C361.84,486.35 362.14,517.55 362.81,517.77 C363.36,517.95 365.35,516.75 367.23,515.10 C369.11,513.45 373.14,510.39 376.17,508.30 C385.86,501.64 410.96,483.74 420.90,476.42 C426.18,472.53 432.98,467.70 436.00,465.69 C441.78,461.84 445.62,459.09 458.16,449.80 C462.37,446.68 471.30,440.38 478.00,435.81 C494.50,424.56 493.28,425.42 504.27,417.29 C509.65,413.32 515.57,409.35 517.43,408.47 C519.29,407.58 521.60,405.99 522.56,404.93 C523.52,403.87 525.25,403.01 526.40,403.03 C529.12,403.06 559.52,422.77 579.50,437.45 C582.80,439.88 587.75,443.22 590.50,444.87 C593.25,446.53 596.40,448.60 597.50,449.46 C598.60,450.32 603.11,453.39 607.52,456.26 C611.93,459.14 617.23,462.80 619.30,464.39 C621.37,465.98 624.29,468.01 625.80,468.89 C633.50,473.42 638.74,476.86 643.11,480.25 C645.77,482.31 648.30,484.00 648.74,484.00 C649.18,484.00 651.13,485.31 653.07,486.91 C655.01,488.51 658.83,491.05 661.55,492.56 C664.27,494.06 667.90,496.47 669.61,497.90 C671.33,499.33 675.73,502.30 679.40,504.50 C683.08,506.70 688.59,510.41 691.66,512.75 C694.73,515.09 697.60,517.00 698.05,517.00 C698.49,517.00 699.45,517.58 700.18,518.30 C702.24,520.31 717.93,531.00 718.83,531.00 C719.28,531.00 721.41,532.49 723.57,534.30 C726.74,536.96 742.30,547.63 750.12,552.49 C753.49,554.59 757.64,557.51 761.43,560.45 C763.59,562.13 766.84,564.40 768.65,565.50 C770.47,566.60 775.68,570.03 780.23,573.12 C784.78,576.22 789.62,579.31 791.00,579.99 C792.38,580.68 794.95,582.62 796.73,584.30 C798.51,585.98 801.95,588.51 804.37,589.93 C810.86,593.71 829.64,606.57 834.50,610.55 C836.81,612.45 839.02,614.00 839.40,614.00 C839.78,614.00 842.66,615.75 845.80,617.89 C848.93,620.03 855.17,624.20 859.65,627.14 C869.90,633.88 904.28,657.26 911.26,662.24 C918.49,667.39 925.75,670.80 930.50,671.27 C932.70,671.49 935.24,671.74 936.14,671.83 C937.03,671.92 939.97,671.29 942.65,670.42 ZM 284.50 239.55 C293.37,237.94 309.43,232.42 315.54,228.89 C326.10,222.79 342.17,207.48 349.31,196.73 C358.99,182.14 363.56,168.74 364.91,151.00 C367.84,112.52 348.38,77.28 313.93,58.69 C293.69,47.77 263.84,44.88 240.50,51.59 C214.67,59.02 192.07,78.46 180.77,103.00 C172.98,119.91 170.45,132.53 171.32,150.11 C172.12,166.51 177.20,181.33 187.54,197.50 C195.17,209.42 210.10,222.82 223.50,229.77 C229.73,233.00 245.55,238.56 252.50,239.97 C259.13,241.31 275.99,241.09 284.50,239.55 Z" fill="rgb(245,247,247)"/>
</g>
</svg>